<?xml version="1.0" encoding="UTF-8" standalone="no"?> <!DOCTYPE svg PUBLIC "-//W3C//DTD SVG 1.1//EN" "http://www.w3.org/Graphics/SVG/1.1/DTD/svg11.dtd"> <svg width="576px" height="499px" viewBox="0 0 1830 1603" version="1.1" xmlns="http://www.w3.org/2000/svg" xmlns:xlink="http://www.w3.org/1999/xlink" xml:space="preserve" xmlns:serif="http://www.serif.com/" style="fill-rule:evenodd;clip-rule:evenodd;stroke-miterlimit:10;"> <path d="M65.73,148.74l145.462,-0l103.183,-55.951l224.964,0.845l69.354,-54.128l86.266,-17.757l10.142,63.495l-38.903,123.411l214.817,167.453l82.884,15.226l230.042,122.462l223.273,44.991l150.541,0l184.37,157.312l55.814,184.37l-37.211,230.037l-125.168,323.068l5.073,69.349l-65.966,25.373l-167.453,-13.53l54.122,-91.339l-42.284,-230.043l-91.34,292.627l-158.997,21.991l-65.966,-18.609l72.731,-71.04l6.765,-64.275l-52.438,-81.193l-98.104,121.786l-64.275,157.306l-236.802,8.462l23.682,-72.737l62.584,-56.242l0,-222.85l-38.908,65.967l-62.578,179.291l-13.535,81.198l-228.346,9.301l47.358,-112.907l-54.128,-319.263l-47.364,-390.731l-96.407,-120.095l-69.355,-24.527l-52.437,-90.494l-103.177,0l-25.373,-62.37l118.409,-30.655l-164.076,-150.541l-0,-60.893l-15.226,-37.217l43.981,-15.934Zm761.162,1079.87l-272.333,-170.418l-125.168,-316.726l397.501,487.144Zm312.917,64.276l182.684,-213.762l-495.599,149.487l214.811,186.061l98.104,-121.786Zm-312.917,158.574l150.536,120.512l-236.802,8.461l86.266,-128.973Zm214.812,-36.789l-214.811,36.788l80.55,64.484l134.261,-101.272Zm-510.821,36.789l97.258,-178.874l-73.582,-214.394l-23.676,393.268Zm194.52,22.408l-241.88,90.494l228.346,-9.302l13.534,-81.192Zm-97.262,-201.283l97.264,201.282l-194.523,-22.408l97.259,-178.874Zm159.844,21.99l-159.843,-21.99l198.751,-43.976l-38.908,65.966Zm641.067,-81.193l-289.245,79.501l52.438,81.193l236.807,-160.694Zm42.286,230.04l165.761,-241.244l-208.046,11.201l42.285,230.043Zm-277.398,-929.629l-216.514,260.445l-13.529,-382.906l230.043,122.461Zm-312.923,-137.686l-238.498,-83.729l23.682,-83.723l214.816,167.452Zm-341.679,-282.473l-231.728,57.719l6.765,-58.565l224.963,0.846Zm-502.365,169.145l284.171,108.257l16.911,87.951l-255.415,-15.012l118.409,-30.655l-164.076,-150.541Zm1715.15,453.316l-416.104,2.114l231.733,-159.42l184.371,157.306Zm-429.634,363.03l314.612,123.055l-208.052,11.201l-106.56,-134.256Zm429.634,-363.03l-0,275.918l55.813,-91.548l-55.813,-184.37Zm18.601,414.41l-18.603,-138.494l55.814,-91.549l-37.211,230.043Zm-133.624,71.675l115.021,-210.166l18.603,138.489l-133.624,71.677Zm8.456,251.392l-60.893,94.722l65.972,-25.373l-5.079,-69.349Zm-8.456,-251.392l8.455,251.391l40.599,-214.816l-49.054,-36.575Zm-165.764,241.242l113.33,-45.667l52.431,-195.577l-165.761,241.244Zm174.22,10.15l-60.893,-55.819l52.437,-195.572l8.456,251.391Zm40.596,-214.816l84.569,-108.251l-133.624,71.676l49.055,36.575Zm-40.596,214.816l125.168,-323.067l-84.569,108.251l-40.599,214.816Zm-60.892,-55.819l-167.453,137.012l54.122,-91.345l113.331,-45.667Zm-0,150.541l-30.447,-82.982l-137.006,69.453l167.453,13.529Zm-0,-150.541l-30.447,67.559l-137.006,69.453l167.453,-137.012Zm60.892,55.819l-91.34,11.74l30.447,82.982l60.893,-94.722Zm106.567,-461.559l-272.333,-148.213l157.311,358.379l115.022,-210.166Zm-429.634,87.112l178.451,-50.109l136.161,173.164l-314.612,-123.055Zm157.302,-235.326l21.151,185.215l136.155,173.169l-157.306,-358.384Zm-142.079,662.209c-0,0 26.652,-248.727 30.271,-251.182c3.613,-2.454 61.068,-41.444 61.068,-41.444l-91.339,292.626Zm-145.469,-131.934l103.183,40.599l-109.948,23.676l6.765,-64.275Zm145.469,131.934l-97.259,-36.788l-61.738,58.779l158.997,-21.991Zm-152.236,-67.658l54.98,30.869l-127.711,40.171l72.731,-71.04Zm-6.762,89.648l61.739,-58.779l-127.711,40.171l65.972,18.608Zm116.712,-113.327l42.285,91.339l-97.259,-36.788l54.974,-54.551Zm72.555,-159.845l-72.556,159.842l-103.183,-40.593l175.739,-119.249Zm-45.492,-175.701l-164.076,-278.037l-18.609,227.928l182.685,50.109Zm-495.599,149.485l312.915,-199.596l182.685,50.109l-495.6,149.487Zm214.812,186.061l71.04,-212.489l209.748,-123.054l-280.788,335.543Zm-214.812,-186.061l285.857,-26.427l209.743,-123.06l-495.6,149.487Zm214.812,186.061l71.04,-212.489l-285.851,26.427l214.811,186.062Zm116.712,-613.582l177.605,-82.883l-13.529,360.921l-164.076,-278.038Zm35.524,-287.296l128.55,124.702l94.722,-79.71l-223.272,-44.992Zm-216.512,260.446l345.064,-135.744l-128.551,-124.701l-216.513,260.445Zm502.365,69.56l-143.776,-125.592l164.927,310.807l-21.151,-185.215Zm272.332,-127.704l-272.333,127.705l272.333,148.213l-0,-275.918Zm-184.371,-157.309l-51.592,159.42l-180.142,0l231.734,-159.42Zm-925.233,-266.406l-321.376,78.656l345.053,-162.385l-23.677,83.729Zm334.907,481.859l-397.918,-108.888l279.52,260.483l118.398,-151.595Zm180.988,26.85l-180.988,-26.85l345.064,-135.743l-164.076,162.593Zm177.604,-82.882l-13.53,-79.71l245.263,-79.709l-231.733,159.419Zm-476.992,207.626l299.386,-124.745l-180.988,-26.85l-118.398,151.595Zm-32.136,302.777l32.138,-302.779l280.777,103.183l-312.915,199.596Zm32.136,-302.777l-429.634,-184.37l150.119,-76.113l279.515,260.483Zm-279.517,-260.483l301.506,-289.244l-387.349,221.587l85.843,67.657Zm-246.528,-43.98l160.688,-23.676l-282.479,-91.345l52.437,90.494l69.354,24.527Zm5.072,-162.381l-126.859,47.359l-128.556,-62.37l255.415,15.011Zm542.962,-82.882l-542.963,82.884l304.465,-166.613l238.498,83.729Zm-559.874,-5.072l-32.988,-128.551l-135.739,64.275l168.727,64.276Zm345.058,-162.381l-358.594,-57.302l231.734,-57.719l126.86,115.021Zm-455.008,-59.916l96.419,2.619l6.764,-58.57l-103.183,55.951Zm-174.22,53.149l182.684,-53.151l-153.929,0l-28.755,53.151Zm115.446,104.872l-115.444,-104.874l0,60.893l115.444,43.981Zm135.737,-64.276l198.745,-21.99l-165.757,150.541l-32.988,-128.551Zm378.045,-33.829l-179.297,11.838l-165.762,150.541l345.059,-162.379Zm-358.591,-57.3l179.291,69.14l-198.745,21.991l-135.738,64.275l155.192,-155.406Zm-87.955,-2.616l-67.235,158.02l-115.45,-104.869l182.685,-53.151Zm319.683,-55.104l126.86,115.021l-179.297,-28.651l52.437,-86.37Zm165.765,-8.392l-111.557,57.538l72.655,65.873l38.902,-123.411Zm-96.411,-45.736l96.413,45.738l-10.147,-63.495l-86.266,17.757Zm-69.354,54.128l54.206,49.142l15.149,-103.271l-69.355,54.129Zm-45.669,504.057l45.667,-169.15l341.682,-52.431l-387.349,221.581Zm483.759,176.548l-96.413,-398.133l-301.505,289.245l397.918,108.888Zm-118.4,151.594l-160.694,49.055l128.556,253.725l32.138,-302.78Zm-429.634,-184.368l268.939,233.42l128.562,253.724l-397.501,-487.144Zm-228.346,-328.145l137.007,45.667l-185.633,-152.227l-115.45,-43.981l164.076,150.541Zm1315.12,304.887l-36.371,125.592l-143.777,-125.592l180.148,0Zm-657.137,207.626l118.398,-151.595l-397.913,-108.888l279.515,260.483Zm-216.507,-633.453l55.814,111.76l182.685,-28.03l-238.499,-83.73Zm-309.538,328.99l246.526,43.981l-150.113,76.114l-96.413,-120.095Zm1096.07,592.012l-106.56,-134.255l-182.685,213.756l289.245,-79.501Zm-0,0l-207.382,-16.291l-81.863,95.792l289.245,-79.501Zm-602.16,15.228l-272.333,-170.418l49.901,145.391l222.432,25.027Zm602.16,-15.228l71.891,-3.871l-29.607,233.914l-42.284,-230.043Z" style="fill:none;fill-rule:nonzero;stroke:#020202;stroke-width:4.33px;" /> </svg>