<?xml version="1.0" encoding="UTF-8" standalone="no"?><!DOCTYPE svg PUBLIC "-//W3C//DTD SVG 1.1//EN" "http://www.w3.org/Graphics/SVG/1.1/DTD/svg11.dtd"><svg width="100%" height="100%" viewBox="0 0 2224 1779" version="1.1" xmlns="http://www.w3.org/2000/svg" xmlns:xlink="http://www.w3.org/1999/xlink" xml:space="preserve" xmlns:serif="http://www.serif.com/" style="fill-rule:evenodd;clip-rule:evenodd;stroke-miterlimit:10;"><path d="M1740.79,21.749l-248.322,86.963l-47.149,51.339l-17.812,61.821l-14.666,31.43l-146.687,81.73l-162.407,165.548l-137.259,82.774l-104.775,46.1l-80.677,63.913l-37.721,85.915l-242.035,42.96l-79.628,57.631l-82.773,94.299l-0,174.976l51.339,101.629l6.287,119.447l81.725,156.12l11.525,200.123l106.873,0l-47.15,-74.395l27.246,-254.608l22.001,-91.153l59.718,27.245l68.108,195.929l26.197,182.311l88.006,-2.092l-38.765,-78.585l76.487,-297.563l45.058,239.937l41.911,104.776l-5.244,78.579l130.972,-0l-41.911,-83.817l55.534,-334.236l68.102,-1.049l41.917,325.857l-7.336,82.768l133.064,-1.043l-47.149,-89.061l147.735,-396.057l45.052,-188.598l-3.14,-255.657l107.916,40.863l112.111,-41.906l-1.043,-141.454l98.488,-191.739l12.574,35.624l83.823,26.191l-69.157,-156.114l106.873,1.049l267.183,-193.842l-172.878,72.297l-240.377,3.147c0,-0 -244.747,-73.347 -242.649,-71.249c2.097,2.092 5.238,-30.386 5.238,-30.386l123.642,-67.059l66.005,-79.628Zm-588.846,992.583l-86.612,-55.88l-95.001,74.044l152.276,163.45l29.337,-181.614Zm-206.757,551.826l25.148,-533.662l152.276,163.45l-177.424,370.212Zm262.639,-522.484l-55.88,-29.343l-29.337,181.614l85.217,-152.271Zm-32.13,185.802l32.132,-185.803l-85.217,152.276l-17.818,142.843l70.903,-109.316Zm148.083,-143.892l-148.081,143.892l32.126,-185.803l171.835,-268.231l76.838,12.574l-132.718,297.568Zm-127.128,-279.406l-83.823,37.721l39.117,170.435l44.706,-208.156Zm183.009,-30.736l-183.008,30.738l-44.707,208.151l55.88,29.342l171.835,-268.231Zm-266.832,68.456l-47.496,114.554l86.612,55.88l-39.116,-170.434Zm-226.316,39.116l178.819,75.438l-94.997,74.044l-83.822,-149.482Zm-62.868,-107.572l62.87,107.571l-86.618,-0l23.748,-107.571Zm210.254,-96.395l78.93,164.851l-47.496,114.554l-178.818,-75.438l-62.87,-107.57l210.254,-96.397Zm-77.18,-91.394l77.179,91.394l-210.254,96.397l133.075,-187.791Zm-175.681,105.714l42.608,82.076l-80.33,3.838l37.722,-85.914Zm80.675,-63.914l95.007,-41.801l-133.075,187.791l-42.608,-82.077l80.676,-63.913Zm364.275,-87.314l-122.241,-41.56l-69.849,178.468l192.09,-136.908Zm153.673,233.303l-78.233,-82.076l-104.775,112.814l183.008,-30.738Zm-153.673,-233.303l-29.337,264.036l-162.753,-127.128l192.09,-136.908Zm-113.159,301.759l83.822,-37.722l-162.752,-127.129l78.93,164.851Zm308.742,-206.761l-120.144,56.232l-75.438,-151.228l195.582,94.996Zm-41.91,-191.392l-153.671,96.396l195.582,94.997l-41.911,-191.393Zm-113.856,-22.352l-39.814,118.744l-122.242,-41.56l162.056,-77.184Zm0.348,-88.362l-0.346,88.363l-162.061,77.184l162.407,-165.547Zm435.873,338.429l-66.708,132.718l67.751,8.73l-1.043,-141.448Zm-218.984,142.496l152.271,-9.78l67.757,8.736l-112.112,41.906l-107.916,-40.862Zm23.749,-169.038l-85.223,-9.779l34.927,89.407l50.296,-79.628Zm-23.749,169.038l-26.542,-89.407l178.813,79.627l-152.271,9.78Zm-26.544,-27.94l-0,-61.469l-76.839,48.895l76.839,12.574Zm-34.927,-150.879l-41.911,138.303l-78.233,-82.071l120.144,-56.232Zm34.927,89.411l-34.927,-89.412l-41.912,138.307l76.839,-48.895Zm-0,61.468l26.542,27.937l-26.542,-89.406l-0,61.469Zm344.016,-306.297l-91.158,-45.755l-7.33,237.494l98.488,-191.739Zm27.242,-94.301l-27.239,94.299l-91.159,-45.749l118.398,-48.55Zm-150.527,-63.214l32.132,111.76l-93.602,39.122l61.47,-150.882Zm24.797,349.256l7.33,-237.494l-93.596,39.117l86.266,198.377Zm-280.455,-279.403l194.188,81.027l-0,125.729l-194.188,-206.756Zm34.927,160.657l159.26,46.1l-194.187,-206.756l34.927,160.656Zm-34.927,82.423l34.927,-82.422l50.296,92.201l-85.223,-9.779Zm0,-243.08l-41.911,51.69l41.911,191.393l34.927,-82.428l-34.927,-160.655Zm-155.766,29.336l155.768,-29.337l-41.911,51.69l-153.671,96.391l39.814,-118.744Zm0.348,-88.362l146.687,-81.725l-26.191,59.723l-120.496,22.002Zm216.889,35.274l-96.396,-57.28l-85.217,67.059l120.144,13.974l61.469,-23.753Zm-217.237,53.088l35.624,-43.306l120.144,13.969l-155.768,29.337Zm120.843,-110.366l-85.223,67.059l-35.273,-45.057l120.496,-22.002Zm26.194,-59.723l158.212,70.903l-184.409,-11.18l26.197,-59.723Zm264.387,70.9l-90.807,-50.295l-8.384,50.295l99.191,0Zm63.562,-302.455l-234.002,115.252l44.355,31.435l123.642,-67.059l66.005,-79.628Zm86.965,365.669l81.38,-74.389l25.493,75.438l-106.873,-1.049Zm-150.527,-63.214l150.53,63.216l-118.398,48.544l-32.132,-111.76Zm111.325,-54.136l39.205,117.35l-150.531,-63.216l111.326,-54.134Zm-242.646,-71.246l131.324,125.383l111.32,-54.134l-242.644,-71.249Zm-146.689,878.381l0,174.629l-111.062,0l111.062,-174.629Zm-226.318,260.545l53.085,62.161l-11.174,263.696l-41.911,-325.857Zm115.256,-85.917l-62.167,148.081l173.229,-148.081l-111.062,-0Zm-342.969,314.327l120.144,-0l-16.066,106.873l-104.078,-106.873Zm-145.292,-683.144l8.379,281.503l60.602,53.782l-68.981,-335.285Zm86.617,0l-17.637,335.285l-68.981,-335.285l86.618,0Zm-8.035,450.541l-9.603,-115.252l17.636,-335.29l83.823,149.481l-91.856,301.061Zm-220.032,-0l51.345,-20.953l16.763,216.886l-68.108,-195.933Zm-59.72,-27.245c-0,-0 -25.148,-194.88 -23.051,-188.598c2.092,6.287 -1.757,291.364 1.049,279.756c2.8,-11.607 22.002,-91.158 22.002,-91.158Zm-52.391,-449.49l-79.627,100.932l-75.444,9.082l30.386,-86.963l124.685,-23.051Zm29.216,100.934l-29.217,-100.932l-48.198,166.591l77.415,-65.659Zm-108.846,-0l31.435,65.659l48.193,-166.591l-79.628,100.932Zm-75.439,9.081l-1.049,283.945l-51.339,-101.634l52.388,-182.311Zm-52.388,7.335l52.388,-7.336l-52.388,182.311l-0,-174.975Zm127.827,190.344l-70.199,205.713l-6.287,-119.447l76.486,-86.266Zm932.514,87.317l-184.403,411.771l11.174,-263.69l173.229,-148.081Zm-223.522,-22.355l112.457,22.353l-62.167,148.081l-50.29,-170.434Zm-2.796,108.272l2.795,-108.273l-70.897,109.316l68.102,-1.043Zm226.318,-260.545l-75.438,8.379l-35.624,166.25l111.062,-174.629Zm-223.522,152.273l148.081,-143.892l-35.624,166.245l-112.457,-22.353Zm223.522,-152.273l86.963,-5.595l-86.963,180.224l0,-174.629Zm83.823,-261.247l-159.26,269.625l132.718,-297.563l26.542,27.938Zm-83.823,261.247l79.628,-247.976l7.335,242.381l-86.963,5.595Zm0,174.628l41.911,8.379l45.052,-188.598l-86.963,180.219Zm-105.824,404.437l-85.914,90.104l133.064,-1.043l-47.15,-89.061Zm-78.581,7.335l78.584,-7.335l-85.92,90.104l7.336,-82.769Zm184.405,-411.772l-19.558,173.169l-164.845,238.602l184.403,-411.771Zm41.91,8.381l-61.469,164.79l19.558,-173.169l41.911,8.379Zm-147.734,396.056l86.266,-231.267l-164.85,238.602l78.584,-7.335Zm30.385,-570.684l-115.955,-41.911l-32.126,185.803l148.081,-143.892Zm55.881,-310.142l-55.88,310.143l-115.955,-41.912l171.835,-268.231Zm255.655,30.736l-128.523,-159.261l-50.296,79.633l178.819,79.628Zm-19.559,-205.364l86.266,72.644l-86.266,-198.372l0,125.728Zm19.559,205.364l-19.558,-205.362l86.266,72.643l-66.708,132.719Zm-128.525,-159.26l108.965,-46.101l-159.261,-46.101l50.296,92.202Zm128.525,159.26l-19.558,-205.362l-108.965,46.101l128.523,159.261Zm41.913,-481.974l-194.188,46.101l132.718,104.781l61.47,-150.882Zm231.905,-11.177l119.793,-46.1l-240.371,3.14l120.578,42.96Zm292.675,-118.398l-172.878,72.298l-94.304,121.538l267.182,-193.836Zm-655.901,4.193l-133.064,54.48l32.478,-93.25l61.47,-23.05l44.354,31.434l-5.238,30.386Zm-53.436,-90.11l14.32,28.288l234.001,-115.251l-248.321,86.963Zm-79.63,144.592l93.947,-116.301l44.355,31.43l-138.302,84.871Zm173.579,20.606l-40.511,-75.086l-133.069,54.479l173.58,20.607Zm-552.522,405.137l-147.384,203.967l226.314,-39.116l-78.93,-164.851Zm-234.003,203.967l-253.56,-26.196l196.983,-77.536l56.577,103.732Zm-298.613,-60.771l45.052,34.575l196.983,-77.535l-242.035,42.96Zm74.268,135.511c10.602,-1.395 224.343,-74.741 224.343,-74.741l-253.56,-26.191l29.217,100.932Zm232.726,206.76l-149.833,169.04l51.345,-20.953l98.488,-148.087Zm70.201,169.041l-168.688,-20.953l159.085,-94.299l9.603,115.252Zm-302.804,-215.841l232.602,46.798l-149.828,169.045l-82.774,-215.843Zm224.222,-234.7l-224.222,234.699l-0.121,-159.958l224.343,-74.741Zm-301.758,140.402l77.536,94.299l-108.971,46.798l31.435,-141.097Zm-31.433,-65.662l-76.486,293.027l76.486,-86.266l0,-206.761Zm110.017,439.711l-98.488,128.881l-81.731,-156.12l180.219,27.239Zm-110.017,-232.951l110.02,232.953l-1.049,-279.751l-108.971,46.798Zm11.526,361.83l71.249,125.728l-59.724,74.395l-11.525,-200.123Zm400.247,-192.789l-151.925,195.933l-16.763,-216.886l168.688,20.953Zm66.71,232.603l20.256,112.111l-41.912,-104.776l21.656,-7.335Zm-66.71,-232.603l66.708,232.601l25.148,-522.483l-91.856,289.882Zm170.786,339.475l-83.823,5.238l-5.238,78.585l89.061,-83.823Zm-247.271,-41.91l-49.247,80.676l88.012,-2.092l-38.765,-78.584Zm-75.44,-101.634l75.438,101.635l-49.241,80.676l-26.197,-182.311Zm81.724,-364.972l-122.494,-162.055l114.115,-119.447l8.379,281.502Zm-27.239,-471.147l-279.756,128.874l242.034,-42.96l37.722,-85.914Zm-442.16,280.803l-93.602,221.779l-106.17,79.979l-61.475,8.203l-55.874,113.336l125.728,-58.675l13.969,-39.463l100.586,-69.854l76.838,-80.33l-0,-174.975Zm-177.422,325.158l83.823,-103.38l16.763,33.526l-100.586,69.854Zm177.422,-150.182l-93.602,46.798l16.764,33.533l76.838,-80.331Zm-199.773,126.782l22.353,23.402l83.817,-103.381l-106.17,79.979Zm-117.35,121.537l117.349,-121.538l-61.47,8.203l-55.879,113.335Zm125.731,-58.672l-8.379,-62.864l22.347,23.402l-13.968,39.462Zm-125.731,58.672l125.728,-58.674l-45.81,-24.094l-79.918,82.768Zm317.123,-423.295l-93.602,221.779l54.485,-27.24l39.117,-194.539Zm147.734,409.676l-19.904,-219.33l-70.205,205.713l90.109,13.617Zm391.866,-50.291l-160.309,87.49l-8.379,-108.443l168.688,20.953Zm226.318,5.238l-159.606,227.364l177.419,-370.212l-17.813,142.848Zm-134.462,-306.299l152.276,163.455l-167.991,174.278l15.715,-337.733Zm-91.856,301.061l76.141,36.673l15.715,-337.734l-91.856,301.061Zm329.349,-289.881l-11.174,-237.494l-44.706,208.151l55.88,29.343Zm466.956,-942.295l-167.991,35.625l44.355,31.429l123.636,-67.054Zm-948.23,1428.11l151.925,-195.933l-54.831,213.323l-97.094,-17.39Zm780.238,-1392.48l-93.948,116.3l32.479,-93.25l61.469,-23.05Zm695.018,57.626l-208.65,118.398l-58.532,75.438l267.182,-193.836Zm-304.9,348.907l-96.397,-61.815l12.574,35.618l83.823,26.197Zm-1321.24,574.178l23.051,188.598l59.723,27.245l-82.774,-215.843Z" style="fill:none;fill-rule:nonzero;stroke:#020202;stroke-width:4.33px;"/></svg>